<svg data-v-6b6e775d="" width="35px" height="52px" viewBox="0 0 35 52" version="1.1" xmlns="http://www.w3.org/2000/svg" xmlns:xlink="http://www.w3.org/1999/xlink" class="logo"><title data-v-6b6e775d="">Logo White</title> <desc data-v-6b6e775d="">Created with Sketch.</desc> <defs data-v-6b6e775d=""><mask data-v-6b6e775d="" id="myMask" maskUnits="userSpaceOnUse" x="0" y="0" width="40" height="40"><rect data-v-6b6e775d="" id="maskRect" x="0" y="40" width="40" height="40" fill="white"></rect></mask></defs> <g data-v-6b6e775d="" id="Logo-White" stroke="none" stroke-width="1" fill="none" fill-rule="evenodd"><g data-v-6b6e775d=""><polygon data-v-6b6e775d="" id="#FFA4DF" fill="#FFA4DF" points="5.31769737 42.6865672 0 52 35 52 35 42.6865672"></polygon> <path data-v-6b6e775d="" d="M17.5,0 C7.83502632,0 0,7.87623399 0,17.5920398 L9.21052632,17.5920398 C9.21052632,12.989777 12.9218158,9.25896832 17.5,9.25896832 C22.0781842,9.25896832 25.7894737,12.989777 25.7894737,17.5920398 C25.7894737,22.1943026 22.0781842,25.9251113 17.5,25.9251113 C16.6634079,25.9251113 15.8557368,25.8005782 15.0943947,25.5688262 L10.4305526,33.6894969 C12.5924474,34.6504853 14.9841447,35.1840796 17.5,35.1840796 C27.1649737,35.1840796 35,27.3079382 35,17.5920398 C35,7.87623399 27.1649737,0 17.5,0" id="Fill-2" fill="#FFFFFF"></path></g></g> <g data-v-6b6e775d="" id="Logo-Blue" mask="url(#myMask)" stroke="none"><g data-v-6b6e775d=""><polygon data-v-6b6e775d="" id="#FFA4DF" fill="#FFA4DF" points="5.31769737 42.6865672 0 52 35 52 35 42.6865672"></polygon> <path data-v-6b6e775d="" d="M17.5,0 C7.83502632,0 0,7.87623399 0,17.5920398 L9.21052632,17.5920398 C9.21052632,12.989777 12.9218158,9.25896832 17.5,9.25896832 C22.0781842,9.25896832 25.7894737,12.989777 25.7894737,17.5920398 C25.7894737,22.1943026 22.0781842,25.9251113 17.5,25.9251113 C16.6634079,25.9251113 15.8557368,25.8005782 15.0943947,25.5688262 L10.4305526,33.6894969 C12.5924474,34.6504853 14.9841447,35.1840796 17.5,35.1840796 C27.1649737,35.1840796 35,27.3079382 35,17.5920398 C35,7.87623399 27.1649737,0 17.5,0" id="Fill-2" fill="#383DD6"></path></g></g></svg>
